<svg width="136" height="136" viewBox="0 0 136 136" fill="none" xmlns="http://www.w3.org/2000/svg">
<circle cx="68" cy="68" r="68" fill="#3A3A3A"/>
<path d="M91.0041 75.9887C95.9727 75.9887 100 80.016 100 84.9846V88.6583C100 90.9519 99.2832 93.188 97.9495 95.0541C91.7657 103.707 81.6682 107.994 67.987 107.994C54.3025 107.994 44.2103 103.706 38.0415 95.0477C36.7136 93.184 36 90.9527 36 88.6643V84.9846C36 80.016 40.0275 75.9887 44.9958 75.9887H91.0041ZM67.987 28.0059C79.0329 28.0059 87.9876 36.9605 87.9876 48.0065C87.9876 59.0526 79.0329 68.0072 67.987 68.0072C56.9408 68.0072 47.9862 59.0526 47.9862 48.0065C47.9862 36.9605 56.9408 28.0059 67.987 28.0059Z" fill="#A1A1A1"/>
</svg>
